<svg width="31" height="29" viewBox="0 0 31 29" fill="none" xmlns="http://www.w3.org/2000/svg">
<path d="M30.6884 6.75138L27.0072 3.81856C26.7571 3.65252 26.4851 3.5246 26.1996 3.43874C25.9154 3.34361 25.6195 3.29073 25.3208 3.28168H14.725L15.9665 11.2948H25.3208C25.575 11.2948 25.8927 11.2355 26.1981 11.1378C26.5035 11.04 26.7979 10.9054 27.0056 10.7596L30.6869 7.82354C30.8961 7.6777 31 7.48378 31 7.28826C31 7.09274 30.8961 6.89882 30.6884 6.75138ZM13.175 0.076416H11.625C11.4195 0.076416 11.2223 0.16084 11.077 0.311116C10.9317 0.461392 10.85 0.66521 10.85 0.877732V6.48694H5.6792C5.4219 6.48694 5.1057 6.54624 4.80035 6.6456C4.49345 6.74176 4.2005 6.87478 3.9928 7.02382L0.31155 9.95664C0.1023 10.1025 0 10.298 0 10.4935C0 10.6874 0.1023 10.8814 0.31155 11.0304L3.9928 13.9664C4.2005 14.1123 4.49345 14.2469 4.80035 14.343C5.1057 14.4408 5.4219 14.5001 5.6792 14.5001H10.85V28.1225C10.85 28.335 10.9317 28.5388 11.077 28.6891C11.2223 28.8394 11.4195 28.9238 11.625 28.9238H13.175C13.3805 28.9238 13.5777 28.8394 13.723 28.6891C13.8683 28.5388 13.95 28.335 13.95 28.1225V0.877732C13.95 0.66521 13.8683 0.461392 13.723 0.311116C13.5777 0.16084 13.3805 0.076416 13.175 0.076416Z" fill="#242732"/>
</svg>
