<svg width="60" height="60" viewBox="0 0 60 60" fill="none" xmlns="http://www.w3.org/2000/svg">
<circle cx="30" cy="30" r="29.5" fill="#C4C4C4" fill-opacity="0.05" stroke="#F06C2A"/>
<g clip-path="url(#clip0)">
<path d="M43.034 24.8376C46.542 24.1214 46.621 17.8994 42.983 17.9468C40.136 17.9843 40.423 21.0264 40.038 20.4281C39.29 19.2657 39.049 16.2753 41.9 15.0358C44.361 13.9659 47.746 16.1332 47.963 20.0942C48.102 22.6306 46.666 27.3156 41.51 26.5355C34.288 25.4436 39.527 25.5527 43.034 24.8376Z" fill="#D99E82"/>
<path d="M22.3208 33.1687C22.3208 33.1687 23.3368 35.7602 22.9968 42.2499C22.9358 43.4145 22.7878 44.6034 22.7548 45.5796C20.9428 45.5796 21.1028 47.8538 21.4868 47.8538H24.3888C25.0718 47.8538 26.2818 44.0657 26.6008 38.8089C26.9198 33.551 22.3208 33.1687 22.3208 33.1687ZM34.2108 32.804C34.2108 32.804 34.7858 36.6912 37.8618 39.87C38.1188 41.1514 38.6308 44.5329 38.8108 45.5939C36.9218 45.5939 37.5288 47.8494 38.0798 47.8494H40.7258C41.6768 47.8494 41.8178 44.0569 40.9318 39.3719C40.0468 34.6881 34.2108 32.804 34.2108 32.804Z" fill="#C1694F"/>
<path d="M44.2018 26.248C42.9488 22.114 36.9878 22.2506 30.2048 23.2015C27.1498 23.6301 26.5648 18.295 26.5648 17.3772C26.5648 13.382 23.3208 11.3668 20.0688 12.7176C19.2898 13.0404 18.6668 14.183 18.3148 14.7802C16.3378 18.1265 13.6568 14.7967 13.3978 17.8896C13.0848 21.6303 15.1188 22.8852 18.4488 23.2015C20.3408 23.3811 21.9078 24.408 22.3198 28.7591C22.4738 30.381 22.0248 34.9778 24.7078 36.5556C25.4878 39.8159 26.5438 43.8442 26.9578 45.8936C24.7058 46.418 25.6168 48.2944 25.6168 48.2944C25.6168 48.2944 28.7678 48.2471 29.4528 48.2471C30.2668 48.2471 29.6438 41.6625 28.5178 37.4635C33.2818 37.5109 36.3458 35.9904 37.3168 35.5221C38.3448 38.7835 41.4688 39.525 42.1678 40.9122C42.6008 41.7716 44.0458 44.6397 44.1688 45.866C42.5668 46.439 43.0778 47.7744 43.2598 48.2041C44.3428 48.1567 46.4798 48.1567 46.7578 48.1567C47.8678 48.1567 45.6208 40.5497 44.6748 38.5565C43.5928 36.2746 45.4558 30.3821 44.2018 26.248Z" fill="#D99E82"/>
<path d="M28.2662 35.955C28.3102 36.3638 28.4072 36.9367 28.5192 37.4634C33.2832 37.5108 36.3472 35.9903 37.3182 35.522C37.1032 34.6626 37.0882 34.1227 37.1472 33.8274C33.7532 34.4411 32.5992 36.2569 28.2662 35.955ZM18.4492 23.2014C20.3412 23.381 20.8742 24.3792 21.2872 28.7303C21.4412 30.3522 22.0262 34.9777 24.7082 36.5555C23.9882 33.4836 22.7492 22.9061 18.4492 23.2014Z" fill="#F4C7B5"/>
<path d="M15.1532 16.3438C12.3602 16.3438 13.2442 16.9233 13.1512 18.208C13.0582 19.4928 13.0772 21.4871 13.9272 22.5371C15.0542 23.9276 17.7852 23.932 19.1422 22.8423C20.4992 21.7526 18.7182 16.3438 15.1532 16.3438Z" fill="#F4C7B5"/>
<path d="M14.5029 18.1737C14.3939 19.0133 14.0089 19.4871 13.6239 19.4221C12.8639 19.2932 12.2319 18.2244 12.2319 17.3771C12.2319 16.5298 12.8559 16.316 13.6239 16.3546C14.6669 16.4075 14.6259 17.2228 14.5029 18.1737Z" fill="#272B2B"/>
<path d="M27.1669 18.9452C27.5149 21.7163 26.0099 22.1383 24.7839 22.1383C23.5579 22.1383 21.7299 20.761 22.0359 17.9844C22.1699 16.7647 22.5909 15.5681 22.8449 14.4861C23.1809 13.0504 24.0439 12.5777 24.7389 12.9799C26.4039 13.9429 26.9419 17.1635 27.1669 18.9452Z" fill="#662113"/>
<path d="M20.0691 17.3773C20.5816 17.3773 20.9971 16.9195 20.9971 16.3548C20.9971 15.7901 20.5816 15.3323 20.0691 15.3323C19.5566 15.3323 19.1411 15.7901 19.1411 16.3548C19.1411 16.9195 19.5566 17.3773 20.0691 17.3773Z" fill="#292F33"/>
<path d="M31.0352 23.0913C31.1082 24.7793 31.9412 26.5929 33.7682 27.1273C35.6692 27.6837 37.8882 27.2672 38.4382 24.4003C38.5292 23.9265 38.5682 23.0516 38.5112 22.7321C36.3602 22.5349 33.7812 22.7321 31.0352 23.0913Z" fill="#C1694F"/>
<path d="M15.0529 21.11C15.3225 21.11 15.5409 20.8693 15.5409 20.5724C15.5409 20.2754 15.3225 20.0347 15.0529 20.0347C14.7834 20.0347 14.5649 20.2754 14.5649 20.5724C14.5649 20.8693 14.7834 21.11 15.0529 21.11Z" fill="#D99E82"/>
<path d="M15.6948 20.0986C15.8433 20.0986 15.9638 19.9659 15.9638 19.8023C15.9638 19.6386 15.8433 19.5059 15.6948 19.5059C15.5462 19.5059 15.4258 19.6386 15.4258 19.8023C15.4258 19.9659 15.5462 20.0986 15.6948 20.0986Z" fill="#D99E82"/>
<path d="M16.1001 20.8689C16.2486 20.8689 16.3691 20.7362 16.3691 20.5725C16.3691 20.4088 16.2486 20.2761 16.1001 20.2761C15.9515 20.2761 15.8311 20.4088 15.8311 20.5725C15.8311 20.7362 15.9515 20.8689 16.1001 20.8689Z" fill="#D99E82"/>
</g>
<defs>
<clipPath id="clip0">
<rect width="36" height="39.6657" fill="white" transform="translate(12 9)"/>
</clipPath>
</defs>
</svg>
