<svg width="60" height="60" viewBox="0 0 60 60" fill="none" xmlns="http://www.w3.org/2000/svg">
<circle cx="30" cy="30" r="29.5" fill="#C4C4C4" fill-opacity="0.05" stroke="#F06C2A"/>
<g clip-path="url(#clip0)">
<path d="M49.0001 29.4365C47.6481 28.9671 45.1581 26.8329 43.0001 26.8329C40.0001 26.8329 40.0001 18.0183 39.0001 15.8146C38.0001 13.611 36.0001 11.4073 36.0001 10.3055C36.0001 9.20366 33.0001 8.10183 28.0001 10.3055C23.0001 12.5091 20.0001 12.5091 18.0001 12.5091C16.0001 12.5091 15.0001 14.7128 14.0001 16.9164C13.0001 19.1201 14.0001 19.1201 14.0001 19.1201C15.0001 20.2219 16.0001 16.9164 18.0001 15.8146C20.0001 14.7128 21.0001 16.9164 23.0001 15.8146C24.4931 14.9915 27.6581 16.0118 30.0001 15.6648C30.7941 15.5469 31.4931 15.2714 32.0001 14.7128C32.0001 14.7128 32.0001 23.5274 34.0001 26.8329C34.0001 26.8329 33.0001 27.9347 32.0001 31.2402C31.0001 34.5456 30.0001 31.2402 30.0001 29.0365C30.0001 26.8329 29.0001 23.5274 25.0001 21.3237C23.2111 20.3387 19.3421 20.5712 18.0001 23.5274C16.0001 27.9347 18.0001 32.342 20.0001 33.4438C22.0001 34.5456 23.0001 35.6475 27.0001 35.6475C28.9431 35.6475 44.8121 36.1763 49.0001 36.0485V29.4365Z" fill="#FFDC5D"/>
<path d="M21.1818 25.0754C23.3678 22.9368 26.8148 23.2156 29.2068 25.5955C28.4898 24.0827 27.2008 22.5368 24.9998 21.3237C23.2108 20.3387 19.3418 20.5712 17.9998 23.5274C15.9998 27.9347 17.9998 32.342 19.9998 33.4438C20.2388 33.5749 20.4628 33.7071 20.6808 33.836C18.8668 30.9482 19.0158 27.1975 21.1818 25.0754Z" fill="#DD2E44"/>
<path d="M24.9998 27.3838C24.8718 27.3838 24.7438 27.3298 24.6458 27.223C24.4508 27.0081 24.4508 26.6588 24.6458 26.444C25.7798 25.1945 26.9508 25.1802 26.9998 25.1802C27.2758 25.1802 27.4998 25.427 27.4998 25.7311C27.4998 26.0352 27.2758 26.282 26.9998 26.282C26.9718 26.282 26.1788 26.3129 25.3538 27.223C25.2558 27.3298 25.1278 27.3838 24.9998 27.3838ZM20.9998 30.6893C20.8718 30.6893 20.7438 30.6353 20.6458 30.5284C20.4508 30.3136 20.4508 29.9643 20.6458 29.7494C21.7798 28.5 22.9508 28.4857 22.9998 28.4857C23.2758 28.4857 23.4998 28.7325 23.4998 29.0366C23.4998 29.3407 23.2758 29.5875 22.9998 29.5875C22.9718 29.5886 22.1788 29.6183 21.3538 30.5284C21.2558 30.6353 21.1278 30.6893 20.9998 30.6893Z" fill="#EF9645"/>
<path d="M35.017 35.0282H49V29.4375C49 29.4375 47.042 28.1186 45.458 27.5457C44.208 29.887 37.458 30.9657 33.125 28.2629C33.125 28.2629 32.25 30.2771 32.042 31.1034C32.042 31.1034 33.419 31.6687 33.875 32.159C34.418 32.7419 35.018 33.5187 35.017 35.0282Z" fill="#DD2E44"/>
<path d="M13 33.4438H49V46.6658H13V33.4438Z" fill="#55ACEE"/>
<path d="M19 33.4438C22 31.2402 26 27.9347 25 30.1383C24 32.342 23.999 33.4438 26 32.342C28 31.2402 31 30.1383 30 32.342C29 34.5456 32 33.4438 33 32.342C34 31.2402 37 32.342 36 33.4438C35 34.5456 27 35.6475 24 35.6475C21 35.6475 19 33.4438 19 33.4438Z" fill="#55ACEE"/>
</g>
<defs>
<clipPath id="clip0">
<rect width="36" height="39.6657" fill="white" transform="translate(13 7)"/>
</clipPath>
</defs>
</svg>
