<svg width="29" height="21" viewBox="0 0 29 21" fill="none" xmlns="http://www.w3.org/2000/svg">
<path d="M6.53 11.3V15.2C6.53 16.2 6.54 16.79 6.56 16.97C6.66 17.87 6.93 18.32 7.37 18.32C7.47 18.32 7.72 18.27 8.12 18.17C8.22 18.13 8.37 18.11 8.57 18.11C9.33 18.11 9.71 18.44 9.71 19.1C9.71 19.38 9.58 19.62 9.32 19.82C9.08 20.02 8.77 20.12 8.39 20.12C8.07 20.12 7.58 20.08 6.92 20C6.28 19.9 5.8 19.85 5.48 19.85C4.96 19.85 4.38 19.89 3.74 19.97C2.96 20.07 2.44 20.12 2.18 20.12C1.38 20.12 0.98 19.78 0.98 19.1C0.98 18.44 1.32 18.11 2 18.11C2.16 18.11 2.39 18.14 2.69 18.2C3.01 18.26 3.25 18.29 3.41 18.29C3.89 18.29 4.18 17.65 4.28 16.37C4.28 16.29 4.28 15.42 4.28 13.76V11.3C4.28 9.64 4.28 8.77 4.28 8.69C4.18 7.43 3.88 6.8 3.38 6.8C3.22 6.8 2.99 6.84 2.69 6.92C2.41 6.98 2.2 7.01 2.06 7.01C1.34 7.01 0.98 6.69 0.98 6.05C0.98 5.37 1.42 5.03 2.3 5.03C2.68 5.03 2.95 5.04 3.11 5.06C3.75 5.14 4.16 5.18 4.34 5.18C4.5 5.18 4.74 5.16 5.06 5.12C5.4 5.06 5.65 5.03 5.81 5.03C6.39 5.03 6.68 5.42 6.68 6.2C6.68 6.28 6.67 6.4 6.65 6.56C6.63 6.72 6.62 6.84 6.62 6.92C6.6 7.08 6.58 7.7 6.56 8.78C6.54 9.6 6.53 10.44 6.53 11.3ZM4.97 3.44C4.51 3.44 4.11 3.28 3.77 2.96C3.45 2.62 3.29 2.22 3.29 1.76C3.29 1.3 3.45 0.909999 3.77 0.59C4.11 0.269999 4.51 0.109999 4.97 0.109999C5.43 0.109999 5.82 0.269999 6.14 0.59C6.48 0.909999 6.65 1.3 6.65 1.76C6.65 2.22 6.48 2.62 6.14 2.96C5.82 3.28 5.43 3.44 4.97 3.44ZM15.5471 5.93V6.77C16.7471 5.25 18.3471 4.49 20.3471 4.49C21.4271 4.49 22.4471 4.77 23.4071 5.33C24.3671 5.87 25.0171 6.55 25.3571 7.37C25.6371 8.05 25.7771 8.94 25.7771 10.04V15.74C25.7771 16.6 25.7871 17.11 25.8071 17.27C25.9071 17.95 26.1771 18.29 26.6171 18.29C26.7971 18.29 27.0271 18.27 27.3071 18.23C27.6071 18.17 27.8171 18.14 27.9371 18.14C28.1971 18.14 28.4171 18.23 28.5971 18.41C28.7971 18.59 28.8971 18.81 28.8971 19.07C28.8971 19.37 28.7771 19.62 28.5371 19.82C28.2971 20.02 28.0071 20.12 27.6671 20.12C27.3871 20.12 26.9271 20.08 26.2871 20C25.6471 19.92 25.0471 19.88 24.4871 19.88C23.9671 19.88 23.5371 19.9 23.1971 19.94C22.1971 20.06 21.6671 20.12 21.6071 20.12C20.8071 20.12 20.4071 19.77 20.4071 19.07C20.4071 18.45 20.7471 18.14 21.4271 18.14C21.5871 18.14 21.7671 18.16 21.9671 18.2C22.3471 18.28 22.5871 18.32 22.6871 18.32C23.1671 18.32 23.4271 17.77 23.4671 16.67L23.5271 15.14L23.5571 13.31V11.03C23.5571 9.97 23.5071 9.24 23.4071 8.84C23.2271 8.08 22.8371 7.49 22.2371 7.07C21.5771 6.61 20.8271 6.38 19.9871 6.38C18.3871 6.38 17.2371 6.95 16.5371 8.09C16.0571 8.87 15.8171 10.2 15.8171 12.08V16.07C15.8171 16.95 15.8771 17.55 15.9971 17.87C16.1171 18.19 16.3371 18.35 16.6571 18.35C16.8171 18.35 17.0371 18.31 17.3171 18.23C17.5971 18.15 17.8271 18.11 18.0071 18.11C18.6271 18.11 18.9371 18.45 18.9371 19.13C18.9371 19.79 18.5371 20.12 17.7371 20.12C17.5771 20.12 17.0571 20.06 16.1771 19.94C15.7371 19.88 15.2471 19.85 14.7071 19.85C14.2871 19.85 13.7271 19.89 13.0271 19.97C12.1471 20.07 11.6471 20.12 11.5271 20.12C10.6871 20.12 10.2671 19.78 10.2671 19.1C10.2671 18.46 10.5871 18.14 11.2271 18.14C11.3271 18.14 11.5071 18.17 11.7671 18.23C12.0471 18.29 12.3171 18.32 12.5771 18.32C13.1771 18.32 13.4871 17.74 13.5071 16.58L13.5671 13.25V9.62L13.5071 8.57C13.4671 7.89 13.3771 7.43 13.2371 7.19C13.1171 6.93 12.8971 6.8 12.5771 6.8C12.4371 6.8 12.2271 6.83 11.9471 6.89C11.6871 6.93 11.4871 6.95 11.3471 6.95C10.6271 6.95 10.2671 6.63 10.2671 5.99C10.2671 5.33 10.7171 5 11.6171 5C11.7371 5 11.8371 5.01 11.9171 5.03L13.0271 5.15C13.3471 5.15 13.6271 5.13 13.8671 5.09C14.3871 5.05 14.6571 5.03 14.6771 5.03C15.2571 5.03 15.5471 5.33 15.5471 5.93Z" fill="black"/>
</svg>
