<svg width="29" height="19" viewBox="0 0 29 19" fill="none" xmlns="http://www.w3.org/2000/svg">
<path d="M0.996329 2.26575L13.0161 8.44872C13.4199 8.65589 13.9424 8.75411 14.4681 8.75411C14.9937 8.75411 15.5162 8.65589 15.92 8.44872L27.9398 2.26575C28.7235 1.86215 29.4639 0.292236 28.0263 0.292236H0.91139C-0.526171 0.292236 0.214245 1.86215 0.996329 2.26575ZM28.3036 5.64651L15.92 11.8264C15.3751 12.0996 14.9937 12.1318 14.4681 12.1318C13.9424 12.1318 13.561 12.0996 13.0161 11.8264C12.4712 11.5532 1.58449 6.08848 0.695034 5.64497C0.0700082 5.33191 0.0764186 5.69869 0.0764186 5.98106V17.173C0.0764186 17.8175 0.983508 18.7076 1.67905 18.7076H27.3212C28.0167 18.7076 28.9238 17.8175 28.9238 17.173V5.98259C28.9238 5.70022 28.9302 5.33345 28.3036 5.64651Z" fill="#242732"/>
</svg>
