<svg width="60" height="60" viewBox="0 0 60 60" fill="none" xmlns="http://www.w3.org/2000/svg">
<path d="M30.0002 10.3054C36.0002 10.3054 46.0002 13.6109 46.0002 27.9347C46.0002 42.2584 46.0002 45.5639 43.0002 45.5639C40.0002 45.5639 36.0002 42.2584 30.0002 42.2584C24.0002 42.2584 20.0852 45.5639 17.0002 45.5639C13.6572 45.5639 14.0002 32.342 14.0002 27.9347C14.0002 13.6109 24.0002 10.3054 30.0002 10.3054Z" fill="#3F3939"/>
<path d="M18 27.4521C18 18.058 23.373 10.4421 30 10.4421C36.627 10.4421 42 18.058 42 27.4521C42 36.8463 36.627 44.4622 30 44.4622C23.373 44.4622 18 36.8463 18 27.4521Z" fill="#FAE2C3"/>
<path d="M29.9998 40.0548C27.6528 40.0548 26.4248 38.7767 26.2928 38.6302C25.9018 38.1994 25.9018 37.503 26.2928 37.0722C26.6798 36.6458 27.3058 36.6425 27.6968 37.0612C27.7478 37.113 28.5028 37.8512 29.9998 37.8512C31.5188 37.8512 32.2728 37.0909 32.3048 37.059C32.7028 36.648 33.3318 36.6601 33.7128 37.0909C34.0918 37.5239 34.0928 38.2049 33.7068 38.6302C33.5748 38.7767 32.3468 40.0548 29.9998 40.0548Z" fill="#C47149"/>
<path d="M15.0638 33.4438C15.0338 33.0857 14.9998 32.7309 14.9998 32.342C14.9998 26.8329 17.9998 32.9612 17.9998 29.0365C17.9998 25.1107 19.9998 24.6292 21.9998 22.4256L24.9998 19.1201C24.9998 19.1201 29.9998 22.4256 33.9998 22.4256C37.9998 22.4256 41.9998 24.6292 41.9998 29.0365C41.9998 33.4438 44.9998 26.8329 44.9998 32.342C44.9998 32.7331 44.9668 33.0835 44.9418 33.4438H45.9908C45.9998 31.8164 45.9998 29.9929 45.9998 27.9347C45.9998 13.6109 35.9998 8.10181 29.9998 8.10181C23.9998 8.10181 13.9998 13.6109 13.9998 27.9347C13.9998 29.2106 13.9718 31.2247 14.0118 33.4438H15.0638Z" fill="#161414"/>
<ellipse cx="25" cy="28.4857" rx="1" ry="1.65274" fill="#6C2A19"/>
<ellipse cx="35" cy="28.4857" rx="1" ry="1.65274" fill="#6C2A19"/>
<path d="M29.5 32.342L30.799 33.9948H28.201L29.5 32.342Z" fill="#F3CAA0"/>
<circle cx="30" cy="30" r="29.5" fill="#C4C4C4" fill-opacity="0.05" stroke="#F06C2A"/>
</svg>
