<svg width="65" height="73" viewBox="0 0 65 73" fill="none" xmlns="http://www.w3.org/2000/svg">
<path fill-rule="evenodd" clip-rule="evenodd" d="M37.2114 37.4412L22.7681 34V51.5C22.7681 52.3284 23.3318 53 24.0272 53H50.8895C51.5849 53 52.1486 52.3284 52.1486 51.5V34L37.7053 37.4412C37.5423 37.48 37.3744 37.48 37.2114 37.4412ZM36.1992 40C35.9674 40 35.7795 40.2239 35.7795 40.5V41.5C35.7795 41.7761 35.9674 42 36.1992 42H38.7175C38.9493 42 39.1372 41.7761 39.1372 41.5V40.5C39.1372 40.2239 38.9493 40 38.7175 40H36.1992Z" fill="#A1B0FF"/>
<path fill-rule="evenodd" clip-rule="evenodd" d="M21.0896 31.5C21.3215 31.5 21.5094 31.7239 21.5094 32V50C21.5094 50.8284 22.0731 51.5 22.7685 51.5H49.6308C50.3262 51.5 50.8899 50.8284 50.8899 50V32C50.8899 31.7239 51.0779 31.5 51.3097 31.5C51.5415 31.5 51.7294 31.7239 51.7294 32V50C51.7294 51.3807 50.7898 52.5 49.6308 52.5H22.7685C21.6095 52.5 20.6699 51.3807 20.6699 50V32C20.6699 31.7239 20.8578 31.5 21.0896 31.5Z" fill="black"/>
<path fill-rule="evenodd" clip-rule="evenodd" d="M21.0896 23H51.3096C52.7005 23 53.828 24.3431 53.828 26V29.3604C53.828 30.7904 52.9807 32.0217 51.8035 32.3021L36.6935 35.9021C36.3675 35.9798 36.0318 35.9798 35.7057 35.9021L20.5957 32.3021C19.4186 32.0217 18.5713 30.7904 18.5713 29.3604V26C18.5713 24.3431 19.6988 23 21.0896 23ZM21.0896 24C20.1624 24 19.4107 24.8954 19.4107 26V29.3604C19.4107 30.3138 19.9756 31.1346 20.7604 31.3216L35.8704 34.9216C36.0877 34.9733 36.3115 34.9733 36.5289 34.9216L51.6389 31.3216C52.4237 31.1346 52.9885 30.3138 52.9885 29.3604V26C52.9885 24.8954 52.2369 24 51.3096 24H21.0896Z" fill="black"/>
<path fill-rule="evenodd" clip-rule="evenodd" d="M33.6812 39.0002C33.6812 38.1718 34.2449 37.5002 34.9403 37.5002H37.4587C38.1541 37.5002 38.7178 38.1718 38.7178 39.0002V40.0002C38.7178 40.8287 38.1541 41.5002 37.4587 41.5002H34.9403C34.2449 41.5002 33.6812 40.8287 33.6812 40.0002V39.0002ZM34.9403 38.5002C34.7085 38.5002 34.5206 38.7241 34.5206 39.0002V40.0002C34.5206 40.2764 34.7085 40.5002 34.9403 40.5002H37.4587C37.6905 40.5002 37.8784 40.2764 37.8784 40.0002V39.0002C37.8784 38.7241 37.6905 38.5002 37.4587 38.5002H34.9403Z" fill="black"/>
<path fill-rule="evenodd" clip-rule="evenodd" d="M39.9768 24C39.745 24 39.557 23.7761 39.557 23.5L39.557 21.5C39.557 20.6716 38.9933 20 38.2979 20L34.1006 20C33.4052 20 32.8415 20.6716 32.8415 21.5L32.8415 23.5C32.8415 23.7761 32.6536 24 32.4218 24C32.1899 24 32.002 23.7761 32.002 23.5L32.002 21.5C32.002 20.1193 32.9416 19 34.1006 19L38.2979 19C39.4569 19 40.3965 20.1193 40.3965 21.5L40.3965 23.5C40.3965 23.7761 40.2086 24 39.9768 24Z" fill="black"/>
<circle cx="35" cy="36" r="29.5" fill="#C4C4C4" fill-opacity="0.05" stroke="#F06C2A"/>
</svg>
